<?xml version="1.0" encoding="UTF-8" standalone="no"?>
<!DOCTYPE svg PUBLIC "-//W3C//DTD SVG 1.1//EN" "http://www.w3.org/Graphics/SVG/1.1/DTD/svg11.dtd">
<svg width="100%" height="100%" viewBox="0 0 567 325" version="1.1" xmlns="http://www.w3.org/2000/svg" xmlns:xlink="http://www.w3.org/1999/xlink" xml:space="preserve" xmlns:serif="http://www.serif.com/" style="fill-rule:evenodd;clip-rule:evenodd;stroke-linejoin:round;stroke-miterlimit:2;">
    <g transform="matrix(1,0,0,1,-564.692,-50.1745)">
        <g transform="matrix(2,0,0,2,0,0)">
            <path d="M483.792,155.175L483.792,129.504C448.427,130.07 447.146,70.426 492.876,77.376C493.788,77.515 495.018,77.871 496.209,78.15C497.314,78.409 498.384,78.6 499.124,78.486C499.434,73.881 502.249,56.372 502.112,53.167C489.998,50.2 475.907,49.899 463.663,53.54C460.425,54.504 456.397,56.324 453.474,58.073C447.424,61.697 442.218,66.64 438.623,72.46C428.232,89.264 427.049,113.068 434.56,131.286C438.561,140.986 447.274,148.844 457.69,152.145C462.103,153.542 464.916,154.432 469.716,154.647C471.771,154.74 471.791,155.23 476.429,155.3C478.892,155.337 481.395,155.135 483.792,155.175ZM282.346,78.058L304.133,78.152C304.622,83.184 304.227,135.844 304.227,146.542L304.25,155.17C304.4,155.965 304.207,155.602 304.62,156.017C305.519,156.728 329.422,156.528 332.46,156.265L332.615,78.212C337.644,77.719 349.222,78.492 353.22,78.155C354.608,78.038 354.776,78.264 354.746,75.341C354.69,69.726 355.012,57.965 354.685,53.964L282.4,53.832L282.346,78.058Z" style="fill:rgb(36,174,132);fill-rule:nonzero;"/>
        </g>
        <g transform="matrix(2,0,0,2,0,0)">
            <path d="M389.151,73.653C393.126,76.071 401.839,75.062 405.98,73.546C421.709,67.782 427.097,47.909 417.438,35.355C412.357,28.75 410.655,28.643 405.119,30.579C400.724,32.116 397.695,36.701 395.629,40.712C393.394,45.048 392.288,50.974 391.284,56.064C390.65,59.278 388.774,70.713 389.151,73.653ZM372.501,49.594C372.501,57.648 374.972,63.656 380.597,68.648C381.691,69.618 383.985,71.957 385.747,71.937C387.038,58.847 388.656,43.637 396.024,33.441C397.179,31.843 398.707,30.544 400.067,29.497C400.81,28.924 401.623,28.33 402.624,27.884C403.811,27.355 404.665,27.348 405.341,26.499C403.531,25.108 395.53,24.695 392.51,25.484C381.507,28.355 372.501,36.326 372.501,49.594Z" style="fill:rgb(232,225,0);fill-rule:nonzero;"/>
        </g>
        <g transform="matrix(2,0,0,2,0,0)">
            <path d="M396.849,119.963C395.492,120.834 370.851,119.724 366.671,120.249C365.806,119.565 366.463,120.333 366.113,119.311C365.691,118.078 365.978,84.801 365.968,83.36L338.698,83.257L338.636,184.728L344.949,184.728C349.024,184.728 354.122,184.833 358.829,184.793L364.104,184.748C364.604,184.745 365.062,184.745 365.551,184.753L365.786,184.758L365.873,184.733L366.481,144.829C367.263,144.084 393.659,144.274 396.907,144.531L397.569,184.865L424.764,184.91L424.827,83.217L397.404,83.228C397.398,89.479 397.874,117.872 397.164,119.49L396.849,119.963Z" style="fill:rgb(228,2,46);fill-rule:nonzero;"/>
            <path d="M551.547,131.619C552.084,130.102 551.131,131.429 553.869,129.452C568.371,118.984 568.141,96.748 551.042,87.844C538.398,81.258 510.33,83.518 495.234,83.74L487.438,84.507C485.805,85.047 487.16,126.562 486.89,132.084L486.89,157.755L486.95,186.718C510.165,187.133 548.789,192.199 561.845,169.191C563.575,166.146 565.013,162.426 565.25,158.7C565.37,156.825 565.758,156.3 565.788,154.565C565.963,143.984 560.633,135.778 551.547,131.619ZM514.445,104.969C517.88,104.357 524.182,104.279 527.487,105.231C530.977,106.236 533.27,108.894 533.132,113.076C532.84,121.872 522.874,122.422 514.388,121.809L514.445,104.969ZM534.795,156.035C533.785,163.951 526.077,165.831 520.057,165.031C515.57,164.436 514.838,166.036 514.838,162.611L514.838,148.174C514.838,145.619 514.94,146.129 520.849,146.119C527.237,146.104 535.82,148.014 534.795,156.035Z" style="fill:rgb(228,2,46);fill-rule:nonzero;"/>
        </g>
    </g>
</svg>
